<?xml version="1.0" encoding="UTF-8"?>
<!-- Generator: Adobe Illustrator 24.2.0, SVG Export Plug-In . SVG Version: 6.00 Build 0)  -->
<svg version="1.1" id="Layer_1" xmlns="http://www.w3.org/2000/svg" xmlns:xlink="http://www.w3.org/1999/xlink" x="0px" y="0px" viewBox="0 0 100 100" style="enable-background:new 0 0 100 100;" xml:space="preserve">
<style type="text/css">
	.st0{fill:#6F8CAA;}
</style>
<path class="st0" d="M50,0.6C22.4,0.6,0,23,0,50.6s22.4,50,50,50s50-22.4,50-50S77.6,0.6,50,0.6z M82.5,33.7c2.5,0,4.3,1.9,6.8,1.9  C87.5,38,79.2,38,76.8,35C78.8,34.3,80,33.7,82.5,33.7z M6,51.2c0-2.5,0-4.9,0.6-8.2c0.6,0,1.6,0,2.3,0c0,0,0.6,0.6,0.6,1.2  c0,1.9,1.8,3.1,3.1,3.1c4.9,0.6,6.7,4.9,11.3,6.2c1.2,0.6,0.6,1.8,0,3.1c-3.7,4.9-0.6,8.8,2.4,11.9c3.1,2.5,3.1,4.9,3.7,8.8  c0,4.4,0.7,10.5,2.5,14.9C16.9,84.8,6,69.3,6,51.2z M50.8,95.5c-4.3,0-9.4-0.7-13.1-1.9c-0.7-1.2-1.5-3.5-0.9-4.7  c2.5-5,5-9.5,8.3-13.8c1.2-1.3,2.4-2.5,2.4-4.3c0-1.3,0.7-3.1,1.3-4.4c1.8-3,1.2-4.9-1.3-5.5c-4.9-1.3-7.4-5.6-11.3-7.4  s-7.4-3.5-10.5-1.7c-1.2,0.6-3.1,1.3-3.1-0.6c0-2.5-3-4.3-2.4-6.8c-0.6,0-1.3,0-1.9,0.6s-1.2,1.3-2.5,0.7c-1.2-1.3-0.6-2.5-0.6-3.7  c0.6-1.3,1.3-1.9,2.5-2.5c2.5-0.6,4.9-0.6,6.2,2.5c1.8-5.6,5.5-8.9,9.4-11.4c0,0,5-4.3,5.6-4.3s1.2,1.2,2.5,1.9c1.2,0,1.8,0,1.8-1.3  c0.6-3.1-1.2-6.8-3.7-7.4c0-0.6,0.6-0.6,0.6-0.6c1.9-0.6,4.3-1.8,3.7-3.7c0-2.5-2.4-3.7-4.9-3.7c-1.2,0-2.5,0-3.7,0.6  c-2.5,1.3-5.6,2.5-9.5,2.5c6.8-6.2,16.5-10.5,25.1-8.9c1.9,0.5,3.3,0.7,5.2,0.7c-3.7,0.4-8.5,2.4-10.9,3.7c3.7,0.6,4.3,2.4,3.1,5.5  c-0.7,1.3,0,2.5,1.2,3.1s2.5,0.6,3.1-0.6c1.2-1.9,3.7-2.5,5.5-3.1c2.5-0.6,4.4-1.9,6.2-4.3c0-0.6,1.2-1.3,1.9-1.9  c3.7,1.3,7.4,3.7,11.3,6.2c-0.6,0-1.3,1.2-1.9,1.2c-1.2,1.3-3.1,1.9-1.2,4.4c0.6,1.2,0,1.8-0.6,2.4c-1.3,0.6-1.9,0-2.5-0.6  s-0.6-1.8-2.5-1.8c-0.6,1.2-2.4,1.8-2.4,3.7c3,0,2.4,2.4,3,4.3c-3.7,0.6-4.9,2.4-3,5.5c0.6,1.3-0.7,1.9-1.3,2.5  c-2.4,3.7-4.9,6.2-4.9,10.7s3.1,8.9,8.2,8.2c5.6-0.6,5.6-0.6,7.4,4.4c0,0.6,0.6,1.2,0.6,1.8c0.7,1.2,1.3,2.5,0.7,3.7  c-1.9,4.9,0.6,8.9,2.4,12.6c0.6,1.2,2.1,2.8,2.7,3.5C74.1,90.3,63.4,95.5,50.8,95.5L50.8,95.5z"/>
</svg>